<?xml version="1.0" encoding="UTF-8" standalone="no"?>
<!DOCTYPE svg PUBLIC "-//W3C//DTD SVG 1.1//EN"
 "http://www.w3.org/Graphics/SVG/1.1/DTD/svg11.dtd">
<!-- Generated by graphviz version 2.43.0 (0)
 -->
<!-- Title: sourcetree Pages: 1 -->
<svg width="419pt" height="188pt"
 viewBox="0.00 0.00 419.00 188.00" xmlns="http://www.w3.org/2000/svg" xmlns:xlink="http://www.w3.org/1999/xlink">
<g id="graph0" class="graph" transform="scale(1 1) rotate(0) translate(4 184)">
<title>sourcetree</title>
<polygon fill="white" stroke="transparent" points="-4,4 -4,-184 415,-184 415,4 -4,4"/>
<!-- mulle&#45;mmapallocator -->
<g id="node1" class="node">
<title>mulle&#45;mmapallocator</title>
<polygon fill="yellow" stroke="black" points="277,-180 110,-180 110,-144 277,-144 277,-180"/>
<text text-anchor="middle" x="193.5" y="-158.3" font-family="Times,serif" font-size="14.00">mulle&#45;mmapallocator</text>
</g>
<!-- mulle&#45;allocator -->
<g id="node2" class="node">
<title>mulle&#45;allocator</title>
<polygon fill="lightgrey" stroke="black" points="123,-108 0,-108 0,-72 123,-72 123,-108"/>
<text text-anchor="middle" x="61.5" y="-86.3" font-family="Times,serif" font-size="14.00">mulle&#45;allocator</text>
</g>
<!-- mulle&#45;mmapallocator&#45;&gt;mulle&#45;allocator -->
<g id="edge1" class="edge">
<title>mulle&#45;mmapallocator&#45;&gt;mulle&#45;allocator</title>
<path fill="none" stroke="black" d="M161.21,-143.88C143.63,-134.55 121.69,-122.92 102.87,-112.94"/>
<polygon fill="black" stroke="black" points="104.39,-109.78 93.91,-108.19 101.11,-115.97 104.39,-109.78"/>
</g>
<!-- mulle&#45;mmap -->
<g id="node3" class="node">
<title>mulle&#45;mmap</title>
<polygon fill="lightgrey" stroke="black" points="246,-108 141,-108 141,-72 246,-72 246,-108"/>
<text text-anchor="middle" x="193.5" y="-86.3" font-family="Times,serif" font-size="14.00">mulle&#45;mmap</text>
</g>
<!-- mulle&#45;mmapallocator&#45;&gt;mulle&#45;mmap -->
<g id="edge2" class="edge">
<title>mulle&#45;mmapallocator&#45;&gt;mulle&#45;mmap</title>
<path fill="none" stroke="black" d="M193.5,-143.7C193.5,-135.98 193.5,-126.71 193.5,-118.11"/>
<polygon fill="black" stroke="black" points="197,-118.1 193.5,-108.1 190,-118.1 197,-118.1"/>
</g>
<!-- src/mulle&#45;dlmalloc -->
<g id="node4" class="node">
<title>src/mulle&#45;dlmalloc</title>
<polygon fill="lightgrey" stroke="black" points="411,-108 264,-108 264,-72 411,-72 411,-108"/>
<text text-anchor="middle" x="337.5" y="-86.3" font-family="Times,serif" font-size="14.00">src/mulle&#45;dlmalloc</text>
</g>
<!-- mulle&#45;mmapallocator&#45;&gt;src/mulle&#45;dlmalloc -->
<g id="edge3" class="edge">
<title>mulle&#45;mmapallocator&#45;&gt;src/mulle&#45;dlmalloc</title>
<path fill="none" stroke="black" d="M228.73,-143.88C248.08,-134.47 272.27,-122.71 292.93,-112.67"/>
<polygon fill="black" stroke="black" points="294.67,-115.71 302.14,-108.19 291.61,-109.41 294.67,-115.71"/>
</g>
<!-- mulle&#45;c11 -->
<g id="node5" class="node">
<title>mulle&#45;c11</title>
<polygon fill="lightgrey" stroke="black" points="236.5,-36 150.5,-36 150.5,0 236.5,0 236.5,-36"/>
<text text-anchor="middle" x="193.5" y="-14.3" font-family="Times,serif" font-size="14.00">mulle&#45;c11</text>
</g>
<!-- mulle&#45;mmap&#45;&gt;mulle&#45;c11 -->
<g id="edge4" class="edge">
<title>mulle&#45;mmap&#45;&gt;mulle&#45;c11</title>
<path fill="none" stroke="black" d="M193.5,-71.7C193.5,-63.98 193.5,-54.71 193.5,-46.11"/>
<polygon fill="black" stroke="black" points="197,-46.1 193.5,-36.1 190,-46.1 197,-46.1"/>
</g>
</g>
</svg>
