<?xml version="1.0" encoding="UTF-8" standalone="no"?>
<!DOCTYPE svg PUBLIC "-//W3C//DTD SVG 1.1//EN"
 "http://www.w3.org/Graphics/SVG/1.1/DTD/svg11.dtd">
<!-- Generated by graphviz version 2.43.0 (0)
 -->
<!-- Title: sourcetree Pages: 1 -->
<svg width="393pt" height="188pt"
 viewBox="0.00 0.00 393.00 188.00" xmlns="http://www.w3.org/2000/svg" xmlns:xlink="http://www.w3.org/1999/xlink">
<g id="graph0" class="graph" transform="scale(1 1) rotate(0) translate(4 184)">
<title>sourcetree</title>
<polygon fill="white" stroke="transparent" points="-4,4 -4,-184 389,-184 389,4 -4,4"/>
<!-- mulle&#45;mmapallocator -->
<g id="node1" class="node">
<title>mulle&#45;mmapallocator</title>
<polygon fill="yellow" stroke="black" points="285,-180 118,-180 118,-144 285,-144 285,-180"/>
<text text-anchor="middle" x="201.5" y="-158.3" font-family="Times,serif" font-size="14.00">mulle&#45;mmapallocator</text>
</g>
<!-- mulle&#45;allocator -->
<g id="node2" class="node">
<title>mulle&#45;allocator</title>
<g id="a_node2"><a xlink:href="https://github.com/mulle-c/mulle-allocator" xlink:title="mulle&#45;allocator">
<polygon fill="lightgrey" stroke="black" points="123,-108 0,-108 0,-72 123,-72 123,-108"/>
<text text-anchor="middle" x="61.5" y="-86.3" font-family="Times,serif" font-size="14.00">mulle&#45;allocator</text>
</a>
</g>
</g>
<!-- mulle&#45;mmapallocator&#45;&gt;mulle&#45;allocator -->
<g id="edge1" class="edge">
<title>mulle&#45;mmapallocator&#45;&gt;mulle&#45;allocator</title>
<path fill="none" stroke="black" d="M167.25,-143.88C148.44,-134.47 124.92,-122.71 104.83,-112.67"/>
<polygon fill="black" stroke="black" points="106.39,-109.53 95.88,-108.19 103.26,-115.79 106.39,-109.53"/>
</g>
<!-- mulle&#45;dlmalloc -->
<g id="node4" class="node">
<title>mulle&#45;dlmalloc</title>
<g id="a_node4"><a xlink:href="https://github.com/mulle-core/mulle-dlmalloc" xlink:title="mulle&#45;dlmalloc">
<polygon fill="lightgrey" stroke="black" points="262,-108 141,-108 141,-72 262,-72 262,-108"/>
<text text-anchor="middle" x="201.5" y="-86.3" font-family="Times,serif" font-size="14.00">mulle&#45;dlmalloc</text>
</a>
</g>
</g>
<!-- mulle&#45;mmapallocator&#45;&gt;mulle&#45;dlmalloc -->
<g id="edge2" class="edge">
<title>mulle&#45;mmapallocator&#45;&gt;mulle&#45;dlmalloc</title>
<path fill="none" stroke="black" d="M201.5,-143.7C201.5,-135.98 201.5,-126.71 201.5,-118.11"/>
<polygon fill="black" stroke="black" points="205,-118.1 201.5,-108.1 198,-118.1 205,-118.1"/>
</g>
<!-- mulle&#45;mmap -->
<g id="node5" class="node">
<title>mulle&#45;mmap</title>
<g id="a_node5"><a xlink:href="https://github.com/mulle-core/mulle-mmap" xlink:title="mulle&#45;mmap">
<polygon fill="lightgrey" stroke="black" points="385,-108 280,-108 280,-72 385,-72 385,-108"/>
<text text-anchor="middle" x="332.5" y="-86.3" font-family="Times,serif" font-size="14.00">mulle&#45;mmap</text>
</a>
</g>
</g>
<!-- mulle&#45;mmapallocator&#45;&gt;mulle&#45;mmap -->
<g id="edge3" class="edge">
<title>mulle&#45;mmapallocator&#45;&gt;mulle&#45;mmap</title>
<path fill="none" stroke="black" d="M233.55,-143.88C250.99,-134.55 272.77,-122.92 291.44,-112.94"/>
<polygon fill="black" stroke="black" points="293.16,-115.99 300.33,-108.19 289.86,-109.82 293.16,-115.99"/>
</g>
<!-- mulle&#45;c11 -->
<g id="node3" class="node">
<title>mulle&#45;c11</title>
<g id="a_node3"><a xlink:href="https://github.com/mulle-c/mulle-c11" xlink:title="mulle&#45;c11">
<polygon fill="lightgrey" stroke="black" points="375.5,-36 289.5,-36 289.5,0 375.5,0 375.5,-36"/>
<text text-anchor="middle" x="332.5" y="-14.3" font-family="Times,serif" font-size="14.00">mulle&#45;c11</text>
</a>
</g>
</g>
<!-- mulle&#45;mmap&#45;&gt;mulle&#45;c11 -->
<g id="edge4" class="edge">
<title>mulle&#45;mmap&#45;&gt;mulle&#45;c11</title>
<path fill="none" stroke="black" d="M332.5,-71.7C332.5,-63.98 332.5,-54.71 332.5,-46.11"/>
<polygon fill="black" stroke="black" points="336,-46.1 332.5,-36.1 329,-46.1 336,-46.1"/>
</g>
</g>
</svg>
